<svg width="345" height="91.53074349078167" viewBox="0 0 345 91.53074349078167" class="css-1j8o68f" fill="none"
  xmlns="http://www.w3.org/2000/svg">
  <g id="SvgjsG2483" featurekey="symbolFeature-0" transform="matrix(1.2909836603793645,0,0,1.2909836603793645,-12.006148287763683,-12.135245915094842)" fill="#117dc2">
    <g xmlns="http://www.w3.org/2000/svg">
      <path d="M71.4,17.5c0.3-0.7,0.5-1.5,0.5-2.3c0-3.2-2.6-5.8-5.8-5.8s-5.8,2.6-5.8,5.8s2.6,5.8,5.8,5.8c1,0,2-0.3,2.8-0.7   c6.3,6.2,9.9,14.6,9.9,23.5c0,18.1-14.7,32.9-32.9,32.9C27.8,76.6,13,61.8,13,43.7c0-6.9,2.2-13.6,6.2-19.2   c0.6,0.2,1.3,0.4,2.1,0.4c3.2,0,5.8-2.6,5.8-5.8s-2.6-5.8-5.8-5.8s-5.8,2.6-5.8,5.8c0,1.1,0.3,2.1,0.8,3C11.8,28.4,9.3,36,9.3,43.7   c0,20.2,16.4,36.6,36.6,36.6s36.6-16.4,36.6-36.6C82.5,33.7,78.5,24.3,71.4,17.5z M64,15.2c0-1.1,0.9-2.1,2.1-2.1s2.1,0.9,2.1,2.1   s-0.9,2.1-2.1,2.1S64,16.3,64,15.2z M21.3,17.1c1.1,0,2.1,0.9,2.1,2.1s-0.9,2.1-2.1,2.1s-2.1-0.9-2.1-2.1S20.2,17.1,21.3,17.1z"></path>
      <path d="M28.8,37.9c-0.6,1.9-1,3.8-1,5.8c0,10,8.1,18.1,18.1,18.1S64,53.7,64,43.7c0-2.8-0.6-5.5-1.9-8c0.7-1,1.1-2.2,1.1-3.4   c0-3.2-2.6-5.8-5.8-5.8s-5.8,2.6-5.8,5.8s2.6,5.8,5.8,5.8c0.5,0,1-0.1,1.5-0.2c0.8,1.8,1.2,3.8,1.2,5.9c0,7.9-6.4,14.3-14.3,14.3   s-14.3-6.4-14.3-14.3c0-1.5,0.2-3,0.7-4.4c0.1,0,0.3,0,0.4,0c3.2,0,5.8-2.6,5.8-5.8s-2.6-5.8-5.8-5.8s-5.8,2.6-5.8,5.8   C26.9,35.3,27.6,36.8,28.8,37.9z M55.4,32.3c0-1.1,0.9-2.1,2.1-2.1s2.1,0.9,2.1,2.1s-0.9,2.1-2.1,2.1S55.4,33.4,55.4,32.3z    M32.7,31.5c1.1,0,2.1,0.9,2.1,2.1s-0.9,2.1-2.1,2.1s-2.1-0.9-2.1-2.1S31.5,31.5,32.7,31.5z"></path>
      <path d="M42,23.7c2.3,0,4.3-1.4,5.3-3.4c5.8,0.3,11.1,2.7,15.2,6.8c4.4,4.4,6.9,10.3,6.9,16.5c0,12.9-10.5,23.4-23.4,23.4   c-8.7,0-16.6-4.8-20.6-12.4c1.1-1.1,1.8-2.6,1.8-4.2c0-3.2-2.6-5.8-5.8-5.8s-5.8,2.6-5.8,5.8s2.6,5.8,5.8,5.8c0.2,0,0.4,0,0.5,0   c4.7,8.9,13.9,14.6,24.1,14.6c15,0,27.1-12.2,27.1-27.1c0-7.3-2.8-14.1-8-19.2c-4.7-4.7-10.9-7.5-17.5-7.9   c-0.6-2.6-2.9-4.5-5.7-4.5c-3.2,0-5.8,2.6-5.8,5.8S38.8,23.7,42,23.7z M19.3,50.5c0-1.1,0.9-2.1,2.1-2.1s2.1,0.9,2.1,2.1   s-0.9,2.1-2.1,2.1S19.3,51.7,19.3,50.5z M42,15.9c1.1,0,2.1,0.9,2.1,2.1S43.1,20,42,20s-2.1-0.9-2.1-2.1S40.8,15.9,42,15.9z"></path>
    </g>
  </g>
  <g id="SvgjsG2484" featurekey="nameFeature-0" transform="matrix(1.3661202136266712,0,0,1.3661202136266712,109.4808743890616,-9.371582667045265)" fill="#000000">
    <path d="M25.4 40 l-3.72 0 l-8.64 -11.8 l-5.92 0 l0 11.8 l-3.08 0 l0 -29.16 l10.12 0 c3.44 0 6.2 0.96 7.8 2.56 s2.44 3.6 2.44 5.96 c0 4.92 -3.68 7.76 -8 8.32 z M7.12 13.719999999999999 l0 11.68 l6.76 0 c2.56 0 4.56 -0.72 5.72 -1.88 c1.12 -1.12 1.68 -2.52 1.68 -4.08 c0 -2.88 -1.76 -5.72 -7.32 -5.72 l-6.84 0 z M52.32 40 l-3.2 -7.44 l-15.88 0 l-3.2 7.44 l-3.12 0 l12.56 -29.16 l3.48 0 l12.6 29.16 l-3.24 0 z M47.96 29.759999999999998 l-6.8 -15.76 l-6.76 15.76 l13.56 0 z M80.48 10.84 l3 0 l0 29.16 l-3.32 0 l-17.4 -24.8 l0 24.8 l-3.04 0 l0 -29.16 l3.56 0 l17.2 24.52 l0 -24.52 z M94.68 40 l-3.08 0 l0 -29.16 l3.08 0 l0 12.88 l0.2 0 l13.08 -12.88 l4.24 0 l-14.28 13.96 l14.96 15.2 l-4.32 0 l-13.68 -14.04 l-0.2 0 l0 14.04 z M124.88000000000001 40.28 c-2.76 0 -5.4 -1.04 -7.12 -2.56 c-1.8 -1.56 -2.96 -3.64 -3.2 -5.68 l2.88 -0.8 c0.32 1.72 1.2 3.16 2.64 4.36 c1.4 1.2 3 1.8 4.8 1.8 c1.68 0 3.24 -0.4 4.48 -1.28 c1.24 -0.84 2.04 -2.28 2.04 -4.04 c0 -2.04 -1.08 -3.36 -2.44 -4.16 c-0.96 -0.56 -1.8 -0.8 -2.76 -1 l-3.84 -0.76 c-0.8 -0.16 -1.64 -0.44 -2.56 -0.84 c-0.92 -0.44 -1.72 -0.96 -2.4 -1.64 c-1.36 -1.32 -2.04 -3 -2.04 -5.04 c0 -1.6 0.44 -3.04 1.32 -4.28 c0.88 -1.28 2 -2.2 3.4 -2.88 c1.4 -0.64 2.88 -0.96 4.52 -0.96 c6.28 0 9.04 3.88 9.64 7 l-2.8 0.88 c-0.48 -2.08 -2.36 -5.04 -6.88 -5.04 c-3.12 -0.08 -6.16 2.12 -6.12 5.16 c0 2.24 1.4 4.04 4.24 4.6 l3.68 0.72 c2.48 0.48 4.4 1.32 5.68 2.56 c0.88 0.8 1.52 1.72 1.92 2.68 c0.4 1 0.6 1.88 0.6 2.68 c0.04 5.12 -4.28 8.64 -9.68 8.52 z M169.40000000000003 27.16 l3 0 c-0.4 1.2 -1.04 2.48 -1.92 3.84 c-0.84 1.32 -1.8 2.6 -2.92 3.8 l4.52 5.2 l-3.68 0 l-2.84 -3.28 c-2.8 2.36 -5.56 3.52 -8.28 3.52 c-4.56 0.12 -8.32 -2.84 -8.28 -7.12 c0 -1.48 0.6 -2.96 1.36 -4.04 c0.4 -0.52 0.88 -1.08 1.48 -1.64 c1.2 -1.04 2.16 -1.68 3.52 -2.56 l-2.12 -2.44 c-1.16 -1.32 -2.04 -3.2 -2.04 -4.84 c-0.08 -4.08 3.72 -7.16 7.64 -7.04 c3.64 -0.08 7.44 3 7.36 6.84 c0 1.96 -0.8 3.6 -1.92 4.6 c-0.56 0.52 -1.28 1.08 -2.24 1.64 l-2.68 1.68 l6.48 7.48 c1.6 -1.88 2.8 -3.76 3.56 -5.64 z M162.00000000000003 14.440000000000001 c-0.92 -0.84 -2 -1.24 -3.24 -1.24 s-2.32 0.4 -3.24 1.24 c-0.92 0.88 -1.4 1.92 -1.4 3.16 c0 0.84 0.28 1.64 0.8 2.44 c0.28 0.44 0.52 0.76 0.72 1.04 c0.24 0.28 0.56 0.64 0.96 1.08 s0.64 0.72 0.84 0.92 l0.32 0.36 l2.92 -1.76 c1.76 -1.08 2.64 -2.44 2.64 -4.12 c0 -1.2 -0.44 -2.24 -1.32 -3.12 z M157.64000000000001 37.56 c2 0 4.04 -0.92 6.2 -2.8 l-6.84 -7.96 c-0.56 0.36 -1.04 0.64 -1.4 0.88 s-0.8 0.56 -1.28 0.96 c-0.48 0.44 -0.88 0.8 -1.16 1.2 c-0.6 0.76 -1.08 1.84 -1.08 2.96 c0 1.4 0.52 2.56 1.52 3.44 c1.04 0.88 2.36 1.32 4.04 1.32 z"></path>
  </g>
  <g id="SvgjsG2485" featurekey="nameFeature-1" transform="matrix(1.0601017208943904,0,0,1.0601017208943904,110.7171911100099,44.84773143289853)" fill="#000000">
    <path d="M30.08 10.84 l4.4 0 l0 29.16 l-3.04 0 l0 -25 l0 0 l-10.84 25 l-2.76 0 l-10.76 -24.8 l0 0 l0 24.8 l-3.04 0 l0 -29.16 l4.36 0 l10.88 25 z M69.88 25.36 c0 2.76 -0.64 5.28 -1.88 7.56 c-1.28 2.28 -3.04 4.08 -5.28 5.4 c-2.28 1.32 -4.76 2 -7.56 2 c-2.04 0 -3.96 -0.4 -5.8 -1.16 c-1.8 -0.76 -3.36 -1.8 -4.64 -3.16 c-1.28 -1.28 -2.28 -2.84 -3.04 -4.68 c-0.72 -1.84 -1.12 -3.76 -1.12 -5.8 c0 -2.76 0.64 -5.28 1.92 -7.56 c1.24 -2.28 3 -4.12 5.28 -5.44 c2.24 -1.32 4.76 -1.96 7.52 -1.96 c2.04 0 3.96 0.36 5.8 1.12 c1.8 0.8 3.36 1.84 4.64 3.12 c1.28 1.36 2.32 2.92 3.04 4.72 c0.76 1.84 1.12 3.76 1.12 5.84 z M66.72 25.52 c0 -3.28 -1.2 -6.32 -3.2 -8.52 s-5 -3.6 -8.36 -3.6 c-2.16 0 -4.12 0.56 -5.88 1.6 c-1.76 1.12 -3.12 2.56 -4.08 4.36 c-0.96 1.84 -1.44 3.84 -1.44 6 c0 3.24 1.2 6.32 3.2 8.48 c2 2.2 5 3.6 8.32 3.6 c2.16 0 4.12 -0.56 5.88 -1.64 c1.8 -1.04 3.16 -2.52 4.12 -4.32 s1.44 -3.8 1.44 -5.96 z M96.67999999999999 10.84 l3 0 l0 29.16 l-3.32 0 l-17.4 -24.8 l0 24.8 l-3.04 0 l0 -29.16 l3.56 0 l17.2 24.52 l0 -24.52 z M107.8 40 l0 -29.16 l3.08 0 l0 29.16 l-3.08 0 z M128.51999999999998 13.719999999999999 l0 26.28 l-3.04 0 l0 -26.28 l-9.76 0 l0 -2.88 l22.56 0 l0 2.88 l-9.76 0 z M170.39999999999998 25.36 c0 2.76 -0.64 5.28 -1.88 7.56 c-1.28 2.28 -3.04 4.08 -5.28 5.4 c-2.28 1.32 -4.76 2 -7.56 2 c-2.04 0 -3.96 -0.4 -5.8 -1.16 c-1.8 -0.76 -3.36 -1.8 -4.64 -3.16 c-1.28 -1.28 -2.28 -2.84 -3.04 -4.68 c-0.72 -1.84 -1.12 -3.76 -1.12 -5.8 c0 -2.76 0.64 -5.28 1.92 -7.56 c1.24 -2.28 3 -4.12 5.28 -5.44 c2.24 -1.32 4.76 -1.96 7.52 -1.96 c2.04 0 3.96 0.36 5.8 1.12 c1.8 0.8 3.36 1.84 4.64 3.12 c1.28 1.36 2.32 2.92 3.04 4.72 c0.76 1.84 1.12 3.76 1.12 5.84 z M167.23999999999998 25.52 c0 -3.28 -1.2 -6.32 -3.2 -8.52 s-5 -3.6 -8.36 -3.6 c-2.16 0 -4.12 0.56 -5.88 1.6 c-1.76 1.12 -3.12 2.56 -4.08 4.36 c-0.96 1.84 -1.44 3.84 -1.44 6 c0 3.24 1.2 6.32 3.2 8.48 c2 2.2 5 3.6 8.32 3.6 c2.16 0 4.12 -0.56 5.88 -1.64 c1.8 -1.04 3.16 -2.52 4.12 -4.32 s1.44 -3.8 1.44 -5.96 z M197.79999999999998 40 l-3.72 0 l-8.64 -11.8 l-5.92 0 l0 11.8 l-3.08 0 l0 -29.16 l10.12 0 c3.44 0 6.2 0.96 7.8 2.56 s2.44 3.6 2.44 5.96 c0 4.92 -3.68 7.76 -8 8.32 z M179.51999999999998 13.719999999999999 l0 11.68 l6.76 0 c2.56 0 4.56 -0.72 5.72 -1.88 c1.12 -1.12 1.68 -2.52 1.68 -4.08 c0 -2.88 -1.76 -5.72 -7.32 -5.72 l-6.84 0 z M211.32 40.28 c-2.76 0 -5.4 -1.04 -7.12 -2.56 c-1.8 -1.56 -2.96 -3.64 -3.2 -5.68 l2.88 -0.8 c0.32 1.72 1.2 3.16 2.64 4.36 c1.4 1.2 3 1.8 4.8 1.8 c1.68 0 3.24 -0.4 4.48 -1.28 c1.24 -0.84 2.04 -2.28 2.04 -4.04 c0 -2.04 -1.08 -3.36 -2.44 -4.16 c-0.96 -0.56 -1.8 -0.8 -2.76 -1 l-3.84 -0.76 c-0.8 -0.16 -1.64 -0.44 -2.56 -0.84 c-0.92 -0.44 -1.72 -0.96 -2.4 -1.64 c-1.36 -1.32 -2.04 -3 -2.04 -5.04 c0 -1.6 0.44 -3.04 1.32 -4.28 c0.88 -1.28 2 -2.2 3.4 -2.88 c1.4 -0.64 2.88 -0.96 4.52 -0.96 c6.28 0 9.04 3.88 9.64 7 l-2.8 0.88 c-0.48 -2.08 -2.36 -5.04 -6.88 -5.04 c-3.12 -0.08 -6.16 2.12 -6.12 5.16 c0 2.24 1.4 4.04 4.24 4.6 l3.68 0.72 c2.48 0.48 4.4 1.32 5.68 2.56 c0.88 0.8 1.52 1.72 1.92 2.68 c0.4 1 0.6 1.88 0.6 2.68 c0.04 5.12 -4.28 8.64 -9.68 8.52 z"></path>
  </g>
</svg>

