<svg width="91" height="91.53074349078167" viewBox="0 0 91 91.53074349078167" class="css-1j8o68f"  fill="none"
  xmlns="http://www.w3.org/2000/svg">
  <defs id="SvgjsDefs2482"></defs>
  <g id="SvgjsG2483" featurekey="symbolFeature-0" transform="matrix(1.2909836603793645,0,0,1.2909836603793645,-12.006148287763683,-12.135245915094842)" fill="#117dc2">
    <g xmlns="http://www.w3.org/2000/svg">
      <path d="M71.4,17.5c0.3-0.7,0.5-1.5,0.5-2.3c0-3.2-2.6-5.8-5.8-5.8s-5.8,2.6-5.8,5.8s2.6,5.8,5.8,5.8c1,0,2-0.3,2.8-0.7   c6.3,6.2,9.9,14.6,9.9,23.5c0,18.1-14.7,32.9-32.9,32.9C27.8,76.6,13,61.8,13,43.7c0-6.9,2.2-13.6,6.2-19.2   c0.6,0.2,1.3,0.4,2.1,0.4c3.2,0,5.8-2.6,5.8-5.8s-2.6-5.8-5.8-5.8s-5.8,2.6-5.8,5.8c0,1.1,0.3,2.1,0.8,3C11.8,28.4,9.3,36,9.3,43.7   c0,20.2,16.4,36.6,36.6,36.6s36.6-16.4,36.6-36.6C82.5,33.7,78.5,24.3,71.4,17.5z M64,15.2c0-1.1,0.9-2.1,2.1-2.1s2.1,0.9,2.1,2.1   s-0.9,2.1-2.1,2.1S64,16.3,64,15.2z M21.3,17.1c1.1,0,2.1,0.9,2.1,2.1s-0.9,2.1-2.1,2.1s-2.1-0.9-2.1-2.1S20.2,17.1,21.3,17.1z"></path>
      <path d="M28.8,37.9c-0.6,1.9-1,3.8-1,5.8c0,10,8.1,18.1,18.1,18.1S64,53.7,64,43.7c0-2.8-0.6-5.5-1.9-8c0.7-1,1.1-2.2,1.1-3.4   c0-3.2-2.6-5.8-5.8-5.8s-5.8,2.6-5.8,5.8s2.6,5.8,5.8,5.8c0.5,0,1-0.1,1.5-0.2c0.8,1.8,1.2,3.8,1.2,5.9c0,7.9-6.4,14.3-14.3,14.3   s-14.3-6.4-14.3-14.3c0-1.5,0.2-3,0.7-4.4c0.1,0,0.3,0,0.4,0c3.2,0,5.8-2.6,5.8-5.8s-2.6-5.8-5.8-5.8s-5.8,2.6-5.8,5.8   C26.9,35.3,27.6,36.8,28.8,37.9z M55.4,32.3c0-1.1,0.9-2.1,2.1-2.1s2.1,0.9,2.1,2.1s-0.9,2.1-2.1,2.1S55.4,33.4,55.4,32.3z    M32.7,31.5c1.1,0,2.1,0.9,2.1,2.1s-0.9,2.1-2.1,2.1s-2.1-0.9-2.1-2.1S31.5,31.5,32.7,31.5z"></path>
      <path d="M42,23.7c2.3,0,4.3-1.4,5.3-3.4c5.8,0.3,11.1,2.7,15.2,6.8c4.4,4.4,6.9,10.3,6.9,16.5c0,12.9-10.5,23.4-23.4,23.4   c-8.7,0-16.6-4.8-20.6-12.4c1.1-1.1,1.8-2.6,1.8-4.2c0-3.2-2.6-5.8-5.8-5.8s-5.8,2.6-5.8,5.8s2.6,5.8,5.8,5.8c0.2,0,0.4,0,0.5,0   c4.7,8.9,13.9,14.6,24.1,14.6c15,0,27.1-12.2,27.1-27.1c0-7.3-2.8-14.1-8-19.2c-4.7-4.7-10.9-7.5-17.5-7.9   c-0.6-2.6-2.9-4.5-5.7-4.5c-3.2,0-5.8,2.6-5.8,5.8S38.8,23.7,42,23.7z M19.3,50.5c0-1.1,0.9-2.1,2.1-2.1s2.1,0.9,2.1,2.1   s-0.9,2.1-2.1,2.1S19.3,51.7,19.3,50.5z M42,15.9c1.1,0,2.1,0.9,2.1,2.1S43.1,20,42,20s-2.1-0.9-2.1-2.1S40.8,15.9,42,15.9z"></path>
    </g>
  </g>

</svg>

